<?xml version="1.0" standalone="yes"?>
<!-- SVG graphic -->
<svg xmlns='http://www.w3.org/2000/svg' xmlns:xlink='http://www.w3.org/1999/xlink'
 version="1.1">
<rect x="0" y="67.8571" width="6" height="132.143" stroke="black" stroke-width="1" fill="blue" opacity="1" tooltip="enable"><title>(0,37)</title></rect><rect x="6" y="42.8571" width="6" height="157.143" stroke="black" stroke-width="1" fill="blue" opacity="1" tooltip="enable"><title>(0.0372941,44)</title></rect><rect x="12" y="50" width="6" height="150" stroke="black" stroke-width="1" fill="blue" opacity="1" tooltip="enable"><title>(0.0745882,42)</title></rect><rect x="18" y="0" width="6" height="200" stroke="black" stroke-width="1" fill="blue" opacity="1" tooltip="enable"><title>(0.111882,56)</title></rect><rect x="24" y="60.7143" width="6" height="139.286" stroke="black" stroke-width="1" fill="blue" opacity="1" tooltip="enable"><title>(0.149176,39)</title></rect><rect x="30" y="82.1429" width="6" height="117.857" stroke="black" stroke-width="1" fill="blue" opacity="1" tooltip="enable"><title>(0.186471,33)</title></rect><rect x="36" y="39.2857" width="6" height="160.714" stroke="black" stroke-width="1" fill="blue" opacity="1" tooltip="enable"><title>(0.223765,45)</title></rect><rect x="42" y="64.2857" width="6" height="135.714" stroke="black" stroke-width="1" fill="blue" opacity="1" tooltip="enable"><title>(0.261059,38)</title></rect><rect x="48" y="35.7143" width="6" height="164.286" stroke="black" stroke-width="1" fill="blue" opacity="1" tooltip="enable"><title>(0.298353,46)</title></rect><rect x="54" y="71.4286" width="6" height="128.571" stroke="black" stroke-width="1" fill="blue" opacity="1" tooltip="enable"><title>(0.335647,36)</title></rect><rect x="60" y="64.2857" width="6" height="135.714" stroke="black" stroke-width="1" fill="blue" opacity="1" tooltip="enable"><title>(0.372941,38)</title></rect><rect x="66" y="89.2857" width="6" height="110.714" stroke="black" stroke-width="1" fill="blue" opacity="1" tooltip="enable"><title>(0.410235,31)</title></rect><rect x="72" y="82.1429" width="6" height="117.857" stroke="black" stroke-width="1" fill="blue" opacity="1" tooltip="enable"><title>(0.447529,33)</title></rect><rect x="78" y="150" width="6" height="50" stroke="black" stroke-width="1" fill="blue" opacity="1" tooltip="enable"><title>(0.484823,14)</title></rect><rect x="84" y="150" width="6" height="50" stroke="black" stroke-width="1" fill="blue" opacity="1" tooltip="enable"><title>(0.522117,14)</title></rect><rect x="90" y="146.429" width="6" height="53.5714" stroke="black" stroke-width="1" fill="blue" opacity="1" tooltip="enable"><title>(0.559412,15)</title></rect><rect x="96" y="132.143" width="6" height="67.8571" stroke="black" stroke-width="1" fill="blue" opacity="1" tooltip="enable"><title>(0.596706,19)</title></rect><rect x="102" y="121.429" width="6" height="78.5714" stroke="black" stroke-width="1" fill="blue" opacity="1" tooltip="enable"><title>(0.634,22)</title></rect><rect x="108" y="153.571" width="6" height="46.4286" stroke="black" stroke-width="1" fill="blue" opacity="1" tooltip="enable"><title>(0.671294,13)</title></rect><rect x="114" y="146.429" width="6" height="53.5714" stroke="black" stroke-width="1" fill="blue" opacity="1" tooltip="enable"><title>(0.708588,15)</title></rect><rect x="120" y="150" width="6" height="50" stroke="black" stroke-width="1" fill="blue" opacity="1" tooltip="enable"><title>(0.745882,14)</title></rect><rect x="126" y="171.429" width="6" height="28.5714" stroke="black" stroke-width="1" fill="blue" opacity="1" tooltip="enable"><title>(0.783176,8)</title></rect><rect x="132" y="171.429" width="6" height="28.5714" stroke="black" stroke-width="1" fill="blue" opacity="1" tooltip="enable"><title>(0.82047,8)</title></rect><rect x="138" y="167.857" width="6" height="32.1429" stroke="black" stroke-width="1" fill="blue" opacity="1" tooltip="enable"><title>(0.857764,9)</title></rect><rect x="144" y="150" width="6" height="50" stroke="black" stroke-width="1" fill="blue" opacity="1" tooltip="enable"><title>(0.895058,14)</title></rect><rect x="150" y="167.857" width="6" height="32.1429" stroke="black" stroke-width="1" fill="blue" opacity="1" tooltip="enable"><title>(0.932353,9)</title></rect><rect x="156" y="153.571" width="6" height="46.4286" stroke="black" stroke-width="1" fill="blue" opacity="1" tooltip="enable"><title>(0.969647,13)</title></rect><rect x="162" y="164.286" width="6" height="35.7143" stroke="black" stroke-width="1" fill="blue" opacity="1" tooltip="enable"><title>(1.00694,10)</title></rect><rect x="168" y="171.429" width="6" height="28.5714" stroke="black" stroke-width="1" fill="blue" opacity="1" tooltip="enable"><title>(1.04423,8)</title></rect><rect x="174" y="171.429" width="6" height="28.5714" stroke="black" stroke-width="1" fill="blue" opacity="1" tooltip="enable"><title>(1.08153,8)</title></rect><rect x="180" y="164.286" width="6" height="35.7143" stroke="black" stroke-width="1" fill="blue" opacity="1" tooltip="enable"><title>(1.11882,10)</title></rect><rect x="186" y="171.429" width="6" height="28.5714" stroke="black" stroke-width="1" fill="blue" opacity="1" tooltip="enable"><title>(1.15612,8)</title></rect><rect x="192" y="167.857" width="6" height="32.1429" stroke="black" stroke-width="1" fill="blue" opacity="1" tooltip="enable"><title>(1.19341,9)</title></rect><rect x="198" y="196.429" width="6" height="3.57143" stroke="black" stroke-width="1" fill="blue" opacity="1" tooltip="enable"><title>(1.23071,1)</title></rect><rect x="204" y="189.286" width="6" height="10.7143" stroke="black" stroke-width="1" fill="blue" opacity="1" tooltip="enable"><title>(1.268,3)</title></rect><rect x="210" y="171.429" width="6" height="28.5714" stroke="black" stroke-width="1" fill="blue" opacity="1" tooltip="enable"><title>(1.30529,8)</title></rect><rect x="216" y="178.571" width="6" height="21.4286" stroke="black" stroke-width="1" fill="blue" opacity="1" tooltip="enable"><title>(1.34259,6)</title></rect><rect x="222" y="192.857" width="6" height="7.14286" stroke="black" stroke-width="1" fill="blue" opacity="1" tooltip="enable"><title>(1.37988,2)</title></rect><rect x="228" y="189.286" width="6" height="10.7143" stroke="black" stroke-width="1" fill="blue" opacity="1" tooltip="enable"><title>(1.41718,3)</title></rect><rect x="234" y="178.571" width="6" height="21.4286" stroke="black" stroke-width="1" fill="blue" opacity="1" tooltip="enable"><title>(1.45447,6)</title></rect><rect x="240" y="196.429" width="6" height="3.57143" stroke="black" stroke-width="1" fill="blue" opacity="1" tooltip="enable"><title>(1.49176,1)</title></rect><rect x="246" y="189.286" width="6" height="10.7143" stroke="black" stroke-width="1" fill="blue" opacity="1" tooltip="enable"><title>(1.52906,3)</title></rect><rect x="252" y="182.143" width="6" height="17.8571" stroke="black" stroke-width="1" fill="blue" opacity="1" tooltip="enable"><title>(1.56635,5)</title></rect><rect x="258" y="160.714" width="6" height="39.2857" stroke="black" stroke-width="1" fill="blue" opacity="1" tooltip="enable"><title>(1.60365,11)</title></rect><rect x="264" y="178.571" width="6" height="21.4286" stroke="black" stroke-width="1" fill="blue" opacity="1" tooltip="enable"><title>(1.64094,6)</title></rect><rect x="270" y="196.429" width="6" height="3.57143" stroke="black" stroke-width="1" fill="blue" opacity="1" tooltip="enable"><title>(1.67823,1)</title></rect><rect x="276" y="189.286" width="6" height="10.7143" stroke="black" stroke-width="1" fill="blue" opacity="1" tooltip="enable"><title>(1.71553,3)</title></rect><rect x="282" y="196.429" width="6" height="3.57143" stroke="black" stroke-width="1" fill="blue" opacity="1" tooltip="enable"><title>(1.75282,1)</title></rect><rect x="288" y="171.429" width="6" height="28.5714" stroke="black" stroke-width="1" fill="blue" opacity="1" tooltip="enable"><title>(1.79012,8)</title></rect><rect x="294" y="189.286" width="6" height="10.7143" stroke="black" stroke-width="1" fill="blue" opacity="1" tooltip="enable"><title>(1.82741,3)</title></rect><rect x="300" y="178.571" width="6" height="21.4286" stroke="black" stroke-width="1" fill="blue" opacity="1" tooltip="enable"><title>(1.86471,6)</title></rect><rect x="306" y="192.857" width="6" height="7.14286" stroke="black" stroke-width="1" fill="blue" opacity="1" tooltip="enable"><title>(1.902,2)</title></rect><rect x="312" y="196.429" width="6" height="3.57143" stroke="black" stroke-width="1" fill="blue" opacity="1" tooltip="enable"><title>(1.93929,1)</title></rect><rect x="318" y="182.143" width="6" height="17.8571" stroke="black" stroke-width="1" fill="blue" opacity="1" tooltip="enable"><title>(1.97659,5)</title></rect><rect x="324" y="189.286" width="6" height="10.7143" stroke="black" stroke-width="1" fill="blue" opacity="1" tooltip="enable"><title>(2.01388,3)</title></rect><rect x="330" y="189.286" width="6" height="10.7143" stroke="black" stroke-width="1" fill="blue" opacity="1" tooltip="enable"><title>(2.05118,3)</title></rect><rect x="336" y="196.429" width="6" height="3.57143" stroke="black" stroke-width="1" fill="blue" opacity="1" tooltip="enable"><title>(2.08847,1)</title></rect><rect x="342" y="171.429" width="6" height="28.5714" stroke="black" stroke-width="1" fill="blue" opacity="1" tooltip="enable"><title>(2.12576,8)</title></rect><rect x="348" y="200" width="6" height="0" stroke="black" stroke-width="1" fill="blue" opacity="1" tooltip="enable"><title>(2.16306,0)</title></rect><rect x="354" y="185.714" width="6" height="14.2857" stroke="black" stroke-width="1" fill="blue" opacity="1" tooltip="enable"><title>(2.20035,4)</title></rect><rect x="360" y="192.857" width="6" height="7.14286" stroke="black" stroke-width="1" fill="blue" opacity="1" tooltip="enable"><title>(2.23765,2)</title></rect><rect x="366" y="192.857" width="6" height="7.14286" stroke="black" stroke-width="1" fill="blue" opacity="1" tooltip="enable"><title>(2.27494,2)</title></rect><rect x="372" y="182.143" width="6" height="17.8571" stroke="black" stroke-width="1" fill="blue" opacity="1" tooltip="enable"><title>(2.31223,5)</title></rect><rect x="378" y="196.429" width="6" height="3.57143" stroke="black" stroke-width="1" fill="blue" opacity="1" tooltip="enable"><title>(2.34953,1)</title></rect><rect x="384" y="182.143" width="6" height="17.8571" stroke="black" stroke-width="1" fill="blue" opacity="1" tooltip="enable"><title>(2.38682,5)</title></rect><rect x="390" y="192.857" width="6" height="7.14286" stroke="black" stroke-width="1" fill="blue" opacity="1" tooltip="enable"><title>(2.42412,2)</title></rect><rect x="396" y="196.429" width="6" height="3.57143" stroke="black" stroke-width="1" fill="blue" opacity="1" tooltip="enable"><title>(2.46141,1)</title></rect><rect x="402" y="192.857" width="6" height="7.14286" stroke="black" stroke-width="1" fill="blue" opacity="1" tooltip="enable"><title>(2.49871,2)</title></rect><rect x="408" y="189.286" width="6" height="10.7143" stroke="black" stroke-width="1" fill="blue" opacity="1" tooltip="enable"><title>(2.536,3)</title></rect><rect x="414" y="189.286" width="6" height="10.7143" stroke="black" stroke-width="1" fill="blue" opacity="1" tooltip="enable"><title>(2.57329,3)</title></rect><rect x="420" y="192.857" width="6" height="7.14286" stroke="black" stroke-width="1" fill="blue" opacity="1" tooltip="enable"><title>(2.61059,2)</title></rect><rect x="426" y="196.429" width="6" height="3.57143" stroke="black" stroke-width="1" fill="blue" opacity="1" tooltip="enable"><title>(2.64788,1)</title></rect><rect x="432" y="200" width="6" height="0" stroke="black" stroke-width="1" fill="blue" opacity="1" tooltip="enable"><title>(2.68518,0)</title></rect><rect x="438" y="196.429" width="6" height="3.57143" stroke="black" stroke-width="1" fill="blue" opacity="1" tooltip="enable"><title>(2.72247,1)</title></rect><rect x="444" y="200" width="6" height="0" stroke="black" stroke-width="1" fill="blue" opacity="1" tooltip="enable"><title>(2.75976,0)</title></rect><rect x="450" y="200" width="6" height="0" stroke="black" stroke-width="1" fill="blue" opacity="1" tooltip="enable"><title>(2.79706,0)</title></rect><rect x="456" y="196.429" width="6" height="3.57143" stroke="black" stroke-width="1" fill="blue" opacity="1" tooltip="enable"><title>(2.83435,1)</title></rect><rect x="462" y="196.429" width="6" height="3.57143" stroke="black" stroke-width="1" fill="blue" opacity="1" tooltip="enable"><title>(2.87165,1)</title></rect><rect x="468" y="200" width="6" height="0" stroke="black" stroke-width="1" fill="blue" opacity="1" tooltip="enable"><title>(2.90894,0)</title></rect><rect x="474" y="192.857" width="6" height="7.14286" stroke="black" stroke-width="1" fill="blue" opacity="1" tooltip="enable"><title>(2.94623,2)</title></rect><rect x="480" y="185.714" width="6" height="14.2857" stroke="black" stroke-width="1" fill="blue" opacity="1" tooltip="enable"><title>(2.98353,4)</title></rect><rect x="486" y="196.429" width="6" height="3.57143" stroke="black" stroke-width="1" fill="blue" opacity="1" tooltip="enable"><title>(3.02082,1)</title></rect><rect x="492" y="196.429" width="6" height="3.57143" stroke="black" stroke-width="1" fill="blue" opacity="1" tooltip="enable"><title>(3.05812,1)</title></rect><rect x="498" y="196.429" width="6" height="3.57143" stroke="black" stroke-width="1" fill="blue" opacity="1" tooltip="enable"><title>(3.09541,1)</title></rect><rect x="504" y="196.429" width="6" height="3.57143" stroke="black" stroke-width="1" fill="blue" opacity="1" tooltip="enable"><title>(3.1327,1)</title></rect><rect x="510" y="192.857" width="6" height="7.14286" stroke="black" stroke-width="1" fill="blue" opacity="1" tooltip="enable"><title>(3.17,2)</title></rect><rect x="516" y="200" width="6" height="0" stroke="black" stroke-width="1" fill="blue" opacity="1" tooltip="enable"><title>(3.20729,0)</title></rect><rect x="522" y="196.429" width="6" height="3.57143" stroke="black" stroke-width="1" fill="blue" opacity="1" tooltip="enable"><title>(3.24459,1)</title></rect><rect x="528" y="200" width="6" height="0" stroke="black" stroke-width="1" fill="blue" opacity="1" tooltip="enable"><title>(3.28188,0)</title></rect><rect x="534" y="196.429" width="6" height="3.57143" stroke="black" stroke-width="1" fill="blue" opacity="1" tooltip="enable"><title>(3.31918,1)</title></rect><rect x="540" y="200" width="6" height="0" stroke="black" stroke-width="1" fill="blue" opacity="1" tooltip="enable"><title>(3.35647,0)</title></rect><rect x="546" y="200" width="6" height="0" stroke="black" stroke-width="1" fill="blue" opacity="1" tooltip="enable"><title>(3.39376,0)</title></rect><rect x="552" y="200" width="6" height="0" stroke="black" stroke-width="1" fill="blue" opacity="1" tooltip="enable"><title>(3.43106,0)</title></rect><rect x="558" y="192.857" width="6" height="7.14286" stroke="black" stroke-width="1" fill="blue" opacity="1" tooltip="enable"><title>(3.46835,2)</title></rect><rect x="564" y="196.429" width="6" height="3.57143" stroke="black" stroke-width="1" fill="blue" opacity="1" tooltip="enable"><title>(3.50565,1)</title></rect><rect x="570" y="200" width="6" height="0" stroke="black" stroke-width="1" fill="blue" opacity="1" tooltip="enable"><title>(3.54294,0)</title></rect><rect x="576" y="200" width="6" height="0" stroke="black" stroke-width="1" fill="blue" opacity="1" tooltip="enable"><title>(3.58023,0)</title></rect><rect x="582" y="200" width="6" height="0" stroke="black" stroke-width="1" fill="blue" opacity="1" tooltip="enable"><title>(3.61753,0)</title></rect><rect x="588" y="200" width="6" height="0" stroke="black" stroke-width="1" fill="blue" opacity="1" tooltip="enable"><title>(3.65482,0)</title></rect><rect x="594" y="200" width="6" height="0" stroke="black" stroke-width="1" fill="blue" opacity="1" tooltip="enable"><title>(3.69212,0)</title></rect><text x="30" y="240" font-size="20" fill="black">0</text>
<text x="600" y="240" font-size="20" fill="black">3.72941</text>
<polyline points="0,220,600,220" stroke="black" stroke-width="1" fill="none" opacity="1"/>
<text x="720" y="20" font-size="20" fill="black">56</text>
<text x="720" y="200" font-size="20" fill="black">0</text>
<polyline points="660,0,660,200" stroke="black" stroke-width="1" fill="none" opacity="1"/>
</svg>