<?xml version="1.0" standalone="yes"?>
<!-- SVG graphic -->
<svg xmlns='http://www.w3.org/2000/svg' xmlns:xlink='http://www.w3.org/1999/xlink'
 version="1.1">
<rect x="0" y="0" width="6" height="200" stroke="black" stroke-width="1" fill="blue" opacity="1" tooltip="enable"><title>(0,11464)</title></rect><rect x="6" y="105.042" width="6" height="94.9581" stroke="black" stroke-width="1" fill="blue" opacity="1" tooltip="enable"><title>(0.0397616,5443)</title></rect><rect x="12" y="126.657" width="6" height="73.3426" stroke="black" stroke-width="1" fill="blue" opacity="1" tooltip="enable"><title>(0.0795232,4204)</title></rect><rect x="18" y="138.05" width="6" height="61.9505" stroke="black" stroke-width="1" fill="blue" opacity="1" tooltip="enable"><title>(0.119285,3551)</title></rect><rect x="24" y="146.546" width="6" height="53.4543" stroke="black" stroke-width="1" fill="blue" opacity="1" tooltip="enable"><title>(0.159046,3064)</title></rect><rect x="30" y="152.565" width="6" height="47.4355" stroke="black" stroke-width="1" fill="blue" opacity="1" tooltip="enable"><title>(0.198808,2719)</title></rect><rect x="36" y="158.531" width="6" height="41.4689" stroke="black" stroke-width="1" fill="blue" opacity="1" tooltip="enable"><title>(0.238569,2377)</title></rect><rect x="42" y="162.212" width="6" height="37.7879" stroke="black" stroke-width="1" fill="blue" opacity="1" tooltip="enable"><title>(0.278331,2166)</title></rect><rect x="48" y="165.719" width="6" height="34.2812" stroke="black" stroke-width="1" fill="blue" opacity="1" tooltip="enable"><title>(0.318093,1965)</title></rect><rect x="54" y="168.091" width="6" height="31.9086" stroke="black" stroke-width="1" fill="blue" opacity="1" tooltip="enable"><title>(0.357854,1829)</title></rect><rect x="60" y="172.366" width="6" height="27.6343" stroke="black" stroke-width="1" fill="blue" opacity="1" tooltip="enable"><title>(0.397616,1584)</title></rect><rect x="66" y="173.971" width="6" height="26.0293" stroke="black" stroke-width="1" fill="blue" opacity="1" tooltip="enable"><title>(0.437377,1492)</title></rect><rect x="72" y="176.588" width="6" height="23.4124" stroke="black" stroke-width="1" fill="blue" opacity="1" tooltip="enable"><title>(0.477139,1342)</title></rect><rect x="78" y="179.222" width="6" height="20.7781" stroke="black" stroke-width="1" fill="blue" opacity="1" tooltip="enable"><title>(0.5169,1191)</title></rect><rect x="84" y="181.246" width="6" height="18.7544" stroke="black" stroke-width="1" fill="blue" opacity="1" tooltip="enable"><title>(0.556662,1075)</title></rect><rect x="90" y="182.38" width="6" height="17.6204" stroke="black" stroke-width="1" fill="blue" opacity="1" tooltip="enable"><title>(0.596424,1010)</title></rect><rect x="96" y="184.264" width="6" height="15.7362" stroke="black" stroke-width="1" fill="blue" opacity="1" tooltip="enable"><title>(0.636185,902)</title></rect><rect x="102" y="186.322" width="6" height="13.6776" stroke="black" stroke-width="1" fill="blue" opacity="1" tooltip="enable"><title>(0.675947,784)</title></rect><rect x="108" y="186.724" width="6" height="13.2763" stroke="black" stroke-width="1" fill="blue" opacity="1" tooltip="enable"><title>(0.715708,761)</title></rect><rect x="114" y="188.364" width="6" height="11.6364" stroke="black" stroke-width="1" fill="blue" opacity="1" tooltip="enable"><title>(0.75547,667)</title></rect><rect x="120" y="188.346" width="6" height="11.6539" stroke="black" stroke-width="1" fill="blue" opacity="1" tooltip="enable"><title>(0.795232,668)</title></rect><rect x="126" y="189.567" width="6" height="10.4327" stroke="black" stroke-width="1" fill="blue" opacity="1" tooltip="enable"><title>(0.834993,598)</title></rect><rect x="132" y="190.3" width="6" height="9.69993" stroke="black" stroke-width="1" fill="blue" opacity="1" tooltip="enable"><title>(0.874755,556)</title></rect><rect x="138" y="190.98" width="6" height="9.01954" stroke="black" stroke-width="1" fill="blue" opacity="1" tooltip="enable"><title>(0.914516,517)</title></rect><rect x="144" y="191.783" width="6" height="8.21703" stroke="black" stroke-width="1" fill="blue" opacity="1" tooltip="enable"><title>(0.954278,471)</title></rect><rect x="150" y="192.655" width="6" height="7.34473" stroke="black" stroke-width="1" fill="blue" opacity="1" tooltip="enable"><title>(0.994039,421)</title></rect><rect x="156" y="192.9" width="6" height="7.10049" stroke="black" stroke-width="1" fill="blue" opacity="1" tooltip="enable"><title>(1.0338,407)</title></rect><rect x="162" y="192.777" width="6" height="7.22261" stroke="black" stroke-width="1" fill="blue" opacity="1" tooltip="enable"><title>(1.07356,414)</title></rect><rect x="168" y="194.086" width="6" height="5.91417" stroke="black" stroke-width="1" fill="blue" opacity="1" tooltip="enable"><title>(1.11332,339)</title></rect><rect x="174" y="194.522" width="6" height="5.47802" stroke="black" stroke-width="1" fill="blue" opacity="1" tooltip="enable"><title>(1.15309,314)</title></rect><rect x="180" y="194.644" width="6" height="5.3559" stroke="black" stroke-width="1" fill="blue" opacity="1" tooltip="enable"><title>(1.19285,307)</title></rect><rect x="186" y="195.185" width="6" height="4.81507" stroke="black" stroke-width="1" fill="blue" opacity="1" tooltip="enable"><title>(1.23261,276)</title></rect><rect x="192" y="195.237" width="6" height="4.76274" stroke="black" stroke-width="1" fill="blue" opacity="1" tooltip="enable"><title>(1.27237,273)</title></rect><rect x="198" y="195.237" width="6" height="4.76274" stroke="black" stroke-width="1" fill="blue" opacity="1" tooltip="enable"><title>(1.31213,273)</title></rect><rect x="204" y="195.883" width="6" height="4.11724" stroke="black" stroke-width="1" fill="blue" opacity="1" tooltip="enable"><title>(1.35189,236)</title></rect><rect x="210" y="196.842" width="6" height="3.15771" stroke="black" stroke-width="1" fill="blue" opacity="1" tooltip="enable"><title>(1.39166,181)</title></rect><rect x="216" y="196.65" width="6" height="3.34962" stroke="black" stroke-width="1" fill="blue" opacity="1" tooltip="enable"><title>(1.43142,192)</title></rect><rect x="222" y="196.615" width="6" height="3.38451" stroke="black" stroke-width="1" fill="blue" opacity="1" tooltip="enable"><title>(1.47118,194)</title></rect><rect x="228" y="196.65" width="6" height="3.34962" stroke="black" stroke-width="1" fill="blue" opacity="1" tooltip="enable"><title>(1.51094,192)</title></rect><rect x="234" y="197.558" width="6" height="2.44243" stroke="black" stroke-width="1" fill="blue" opacity="1" tooltip="enable"><title>(1.5507,140)</title></rect><rect x="240" y="197.418" width="6" height="2.582" stroke="black" stroke-width="1" fill="blue" opacity="1" tooltip="enable"><title>(1.59046,148)</title></rect><rect x="246" y="197.331" width="6" height="2.66923" stroke="black" stroke-width="1" fill="blue" opacity="1" tooltip="enable"><title>(1.63022,153)</title></rect><rect x="252" y="197.906" width="6" height="2.09351" stroke="black" stroke-width="1" fill="blue" opacity="1" tooltip="enable"><title>(1.66999,120)</title></rect><rect x="258" y="198.255" width="6" height="1.74459" stroke="black" stroke-width="1" fill="blue" opacity="1" tooltip="enable"><title>(1.70975,100)</title></rect><rect x="264" y="198.273" width="6" height="1.72715" stroke="black" stroke-width="1" fill="blue" opacity="1" tooltip="enable"><title>(1.74951,99)</title></rect><rect x="270" y="198.168" width="6" height="1.83182" stroke="black" stroke-width="1" fill="blue" opacity="1" tooltip="enable"><title>(1.78927,105)</title></rect><rect x="276" y="198.186" width="6" height="1.81438" stroke="black" stroke-width="1" fill="blue" opacity="1" tooltip="enable"><title>(1.82903,104)</title></rect><rect x="282" y="198.325" width="6" height="1.67481" stroke="black" stroke-width="1" fill="blue" opacity="1" tooltip="enable"><title>(1.86879,96)</title></rect><rect x="288" y="198.36" width="6" height="1.63992" stroke="black" stroke-width="1" fill="blue" opacity="1" tooltip="enable"><title>(1.90856,94)</title></rect><rect x="294" y="198.412" width="6" height="1.58758" stroke="black" stroke-width="1" fill="blue" opacity="1" tooltip="enable"><title>(1.94832,91)</title></rect><rect x="300" y="198.622" width="6" height="1.37823" stroke="black" stroke-width="1" fill="blue" opacity="1" tooltip="enable"><title>(1.98808,79)</title></rect><rect x="306" y="198.779" width="6" height="1.22121" stroke="black" stroke-width="1" fill="blue" opacity="1" tooltip="enable"><title>(2.02784,70)</title></rect><rect x="312" y="198.883" width="6" height="1.11654" stroke="black" stroke-width="1" fill="blue" opacity="1" tooltip="enable"><title>(2.0676,64)</title></rect><rect x="318" y="198.988" width="6" height="1.01186" stroke="black" stroke-width="1" fill="blue" opacity="1" tooltip="enable"><title>(2.10736,58)</title></rect><rect x="324" y="198.936" width="6" height="1.0642" stroke="black" stroke-width="1" fill="blue" opacity="1" tooltip="enable"><title>(2.14713,61)</title></rect><rect x="330" y="198.814" width="6" height="1.18632" stroke="black" stroke-width="1" fill="blue" opacity="1" tooltip="enable"><title>(2.18689,68)</title></rect><rect x="336" y="198.849" width="6" height="1.15143" stroke="black" stroke-width="1" fill="blue" opacity="1" tooltip="enable"><title>(2.22665,66)</title></rect><rect x="342" y="199.058" width="6" height="0.94208" stroke="black" stroke-width="1" fill="blue" opacity="1" tooltip="enable"><title>(2.26641,54)</title></rect><rect x="348" y="199.023" width="6" height="0.976971" stroke="black" stroke-width="1" fill="blue" opacity="1" tooltip="enable"><title>(2.30617,56)</title></rect><rect x="354" y="199.075" width="6" height="0.924634" stroke="black" stroke-width="1" fill="blue" opacity="1" tooltip="enable"><title>(2.34593,53)</title></rect><rect x="360" y="199.058" width="6" height="0.94208" stroke="black" stroke-width="1" fill="blue" opacity="1" tooltip="enable"><title>(2.38569,54)</title></rect><rect x="366" y="198.988" width="6" height="1.01186" stroke="black" stroke-width="1" fill="blue" opacity="1" tooltip="enable"><title>(2.42546,58)</title></rect><rect x="372" y="199.232" width="6" height="0.76762" stroke="black" stroke-width="1" fill="blue" opacity="1" tooltip="enable"><title>(2.46522,44)</title></rect><rect x="378" y="199.477" width="6" height="0.523378" stroke="black" stroke-width="1" fill="blue" opacity="1" tooltip="enable"><title>(2.50498,30)</title></rect><rect x="384" y="199.372" width="6" height="0.628053" stroke="black" stroke-width="1" fill="blue" opacity="1" tooltip="enable"><title>(2.54474,36)</title></rect><rect x="390" y="199.372" width="6" height="0.628053" stroke="black" stroke-width="1" fill="blue" opacity="1" tooltip="enable"><title>(2.5845,36)</title></rect><rect x="396" y="199.32" width="6" height="0.680391" stroke="black" stroke-width="1" fill="blue" opacity="1" tooltip="enable"><title>(2.62426,39)</title></rect><rect x="402" y="199.459" width="6" height="0.540823" stroke="black" stroke-width="1" fill="blue" opacity="1" tooltip="enable"><title>(2.66403,31)</title></rect><rect x="408" y="199.459" width="6" height="0.540823" stroke="black" stroke-width="1" fill="blue" opacity="1" tooltip="enable"><title>(2.70379,31)</title></rect><rect x="414" y="199.546" width="6" height="0.453594" stroke="black" stroke-width="1" fill="blue" opacity="1" tooltip="enable"><title>(2.74355,26)</title></rect><rect x="420" y="199.407" width="6" height="0.593161" stroke="black" stroke-width="1" fill="blue" opacity="1" tooltip="enable"><title>(2.78331,34)</title></rect><rect x="426" y="199.581" width="6" height="0.418702" stroke="black" stroke-width="1" fill="blue" opacity="1" tooltip="enable"><title>(2.82307,24)</title></rect><rect x="432" y="199.686" width="6" height="0.314027" stroke="black" stroke-width="1" fill="blue" opacity="1" tooltip="enable"><title>(2.86283,18)</title></rect><rect x="438" y="199.634" width="6" height="0.366364" stroke="black" stroke-width="1" fill="blue" opacity="1" tooltip="enable"><title>(2.9026,21)</title></rect><rect x="444" y="199.773" width="6" height="0.226797" stroke="black" stroke-width="1" fill="blue" opacity="1" tooltip="enable"><title>(2.94236,13)</title></rect><rect x="450" y="199.738" width="6" height="0.261689" stroke="black" stroke-width="1" fill="blue" opacity="1" tooltip="enable"><title>(2.98212,15)</title></rect><rect x="456" y="199.599" width="6" height="0.401256" stroke="black" stroke-width="1" fill="blue" opacity="1" tooltip="enable"><title>(3.02188,23)</title></rect><rect x="462" y="199.826" width="6" height="0.174459" stroke="black" stroke-width="1" fill="blue" opacity="1" tooltip="enable"><title>(3.06164,10)</title></rect><rect x="468" y="199.773" width="6" height="0.226797" stroke="black" stroke-width="1" fill="blue" opacity="1" tooltip="enable"><title>(3.1014,13)</title></rect><rect x="474" y="199.756" width="6" height="0.244243" stroke="black" stroke-width="1" fill="blue" opacity="1" tooltip="enable"><title>(3.14116,14)</title></rect><rect x="480" y="199.756" width="6" height="0.244243" stroke="black" stroke-width="1" fill="blue" opacity="1" tooltip="enable"><title>(3.18093,14)</title></rect><rect x="486" y="199.826" width="6" height="0.174459" stroke="black" stroke-width="1" fill="blue" opacity="1" tooltip="enable"><title>(3.22069,10)</title></rect><rect x="492" y="199.86" width="6" height="0.139567" stroke="black" stroke-width="1" fill="blue" opacity="1" tooltip="enable"><title>(3.26045,8)</title></rect><rect x="498" y="199.86" width="6" height="0.139567" stroke="black" stroke-width="1" fill="blue" opacity="1" tooltip="enable"><title>(3.30021,8)</title></rect><rect x="504" y="199.826" width="6" height="0.174459" stroke="black" stroke-width="1" fill="blue" opacity="1" tooltip="enable"><title>(3.33997,10)</title></rect><rect x="510" y="199.878" width="6" height="0.122121" stroke="black" stroke-width="1" fill="blue" opacity="1" tooltip="enable"><title>(3.37973,7)</title></rect><rect x="516" y="199.878" width="6" height="0.122121" stroke="black" stroke-width="1" fill="blue" opacity="1" tooltip="enable"><title>(3.4195,7)</title></rect><rect x="522" y="199.895" width="6" height="0.104676" stroke="black" stroke-width="1" fill="blue" opacity="1" tooltip="enable"><title>(3.45926,6)</title></rect><rect x="528" y="199.895" width="6" height="0.104676" stroke="black" stroke-width="1" fill="blue" opacity="1" tooltip="enable"><title>(3.49902,6)</title></rect><rect x="534" y="199.93" width="6" height="0.0697837" stroke="black" stroke-width="1" fill="blue" opacity="1" tooltip="enable"><title>(3.53878,4)</title></rect><rect x="540" y="199.843" width="6" height="0.157013" stroke="black" stroke-width="1" fill="blue" opacity="1" tooltip="enable"><title>(3.57854,9)</title></rect><rect x="546" y="199.913" width="6" height="0.0872296" stroke="black" stroke-width="1" fill="blue" opacity="1" tooltip="enable"><title>(3.6183,5)</title></rect><rect x="552" y="199.965" width="6" height="0.0348918" stroke="black" stroke-width="1" fill="blue" opacity="1" tooltip="enable"><title>(3.65807,2)</title></rect><rect x="558" y="199.913" width="6" height="0.0872296" stroke="black" stroke-width="1" fill="blue" opacity="1" tooltip="enable"><title>(3.69783,5)</title></rect><rect x="564" y="199.983" width="6" height="0.0174459" stroke="black" stroke-width="1" fill="blue" opacity="1" tooltip="enable"><title>(3.73759,1)</title></rect><rect x="570" y="199.983" width="6" height="0.0174459" stroke="black" stroke-width="1" fill="blue" opacity="1" tooltip="enable"><title>(3.77735,1)</title></rect><rect x="576" y="199.93" width="6" height="0.0697837" stroke="black" stroke-width="1" fill="blue" opacity="1" tooltip="enable"><title>(3.81711,4)</title></rect><rect x="582" y="199.983" width="6" height="0.0174459" stroke="black" stroke-width="1" fill="blue" opacity="1" tooltip="enable"><title>(3.85687,1)</title></rect><rect x="588" y="199.983" width="6" height="0.0174459" stroke="black" stroke-width="1" fill="blue" opacity="1" tooltip="enable"><title>(3.89663,1)</title></rect><rect x="594" y="200" width="6" height="0" stroke="black" stroke-width="1" fill="blue" opacity="1" tooltip="enable"><title>(3.9364,0)</title></rect><text x="30" y="240" font-size="20" fill="black">0</text>
<text x="600" y="240" font-size="20" fill="black">3.97616</text>
<polyline points="0,220,600,220" stroke="black" stroke-width="1" fill="none" opacity="1"/>
<text x="720" y="20" font-size="20" fill="black">11464</text>
<text x="720" y="200" font-size="20" fill="black">0</text>
<polyline points="660,0,660,200" stroke="black" stroke-width="1" fill="none" opacity="1"/>
</svg>